<svg xmlns="http://www.w3.org/2000/svg" viewBox="0 0 1866.667 1866.667">
  <circle cx="933.334" cy="933.333" r="930" fill="#ff9b46"/>
  <path fill="#e4eaf8" d="m1441.72 875.397-136.645-47.612-23.71 33c-16.049 20.337-33.329 36.307-50.709 52.451-14.46 13.431-29.217 27.748-42.581 43.258l-14.323 16.645c-1.726 1.98-2.706 3.6-5.322 3.775a18.92 18.92 0 0 1-7.549-.871c-4.952-1.8-12.429-6.59-10.267-24.166.471-2.163 25.159-104.416-39.281-131.544l-2.9-1.161c-34.83-12.639-64.341 7.8-95.129 44.322-4.631 5.486-12.643 7.346-17.42 5.613-9.441-3.9-13.6-11.786-11.413-21.49 10.985-48.991-8.338-95.039-47.232-109.155l-3.9-1.355c-33.849-10.83-75.83 2.875-100.323 33.678-.906 1.11-1.368 1.989-2.612 2.613-4.865 4.628-12.594 11.328-21.678 8.032-9.727-3.531-12.146-14.833-13.022-23.422l-1.094-10.654c-1.058-10.549-2.417-22.722-3.965-35.8-2.208-19.38-3.242-40.535-5.177-61.579l-154.889-53.06-.166 1.538c-1.906 25.692-1.309 61.6-.716 96.312.44 25.763.859 50.093.248 69.747l-2.163 73.132 688.563 236.4c21.424-32.126 44.961-68.5 61.645-95.414Zm-436.129 655.014-460.908-158.11c5.751 26.522 6.146 55.546-5.08 86.273l-50.141 137.246 416.914 143.018 46.647-127.681c8.633-23.632 28.663-51.794 52.568-80.746Z"/>
  <path d="m549.276 1412.25 431.992 148.614c13.832-19.114 30.691-39.206 48.194-59.084l-497.806-171.157c10.16 24.319 18.363 51.827 17.62 81.627Zm76.472 230.404a35.839 35.839 0 0 0 22.209 45.551l246.028 84.741 24.509-67.36-247.21-85.153a35.823 35.823 0 0 0-45.536 22.221Zm-76.527-26.43a35.645 35.645 0 0 0-22.305-45.388l-23.775-8.125-24.614 67.12 24.962 8.531a36.048 36.048 0 0 0 45.732-22.138ZM725.19 871.038a35.915 35.915 0 0 0-22.331-45.676l-74.834-25.706-1.345 45.524a101.12 101.12 0 0 1-4.7 28.735l57.427 19.4a36.107 36.107 0 0 0 45.783-22.277Zm76.529 26.581a35.838 35.838 0 0 0 22.213 45.55l471.451 162.358c12.328-18.049 26.826-39.854 41.047-61.665L847.262 875.403a35.83 35.83 0 0 0-45.543 22.216Zm-19.38-286.652-148.3-50.666-4.153 38.177c-.786 10.536-1.15 22.781-1.267 35.956l160.667 54.893c-2.896-26.05-5.724-53.915-6.947-78.36Zm500.027 248.704 138.615 47.598 38.933-63.076-133.462-45.827-44.086 61.305z"/>
  <path fill="#002eff" d="M933.333 0C417.868 0 0 417.866 0 933.333c0 335.765 177.3 630.119 443.385 794.547l97.695-268.414c26.774-73.562-12.987-137.345-33.242-180.258-14.22-30.111-27.618-58.56-31.973-103.914-4.169-43.193-5.509-72.6-4.449-101.529 2.012-61.593 22.914-80.148 47.153-101.624 3.577-3.168 7.227-6.369 10.832-9.739a707.849 707.849 0 0 1 72.224-58.79c16.364-11.286 25.072-30.841 25.925-58.116l2.388-80.984c.61-19.654.192-43.984-.246-69.747-.592-34.711-1.187-70.62.713-96.312l27.409-253.92c3.6-48.72 35.324-90.6 72.261-95.347a48.77 48.77 0 0 1 23.065 2.52c26.126 9.507 43 40.76 41.968 77.44l-14.887 251.147c-.969 35.335 5.088 88.533 9.943 131.264 1.542 13.075 2.9 25.248 3.953 35.8l1.091 10.654c.873 8.589 3.18 20.4 12.878 23.928 9.058 3.3 17.384-3.142 22.235-7.77a9.77 9.77 0 0 0 3.2-2.624c24.422-30.8 65.147-44.673 98.9-33.842l2.985.994c38.78 14.116 58.979 59.932 48.026 108.923-2.185 9.7 1.974 18.049 11.387 21.945 4.763 1.734 14.207 1.218 18.824-4.268 30.7-36.517 58.358-58.233 93.086-45.594l2.808 1.068c64.252 27.128 40.025 128.946 39.556 131.109-2.156 17.576 5.792 23.211 10.729 25.008a17.894 17.894 0 0 0 7.34.975 9.75 9.75 0 0 0 6.727-3.37l14.137-16.533c13.325-15.511 28.207-29.425 42.624-42.856 17.329-16.144 35.232-32.823 51.235-53.16l138.4-192.988c24.706-31.353 58.24-46.248 83.48-37.06a39.357 39.357 0 0 1 13.96 8.716c22.853 22.147 20.946 73.461-4.24 114.348L1375.8 978.633c-25.2 40.775-66.08 103.247-91.56 139.785-1.254 2.1-125.239 210.05-165.887 279.275-8.425 14.325-30.492 38.7-56.093 66.875-44.718 49.352-95.427 105.264-110.618 147l-91.809 252.247q36.381 2.834 73.5 2.851c515.467 0 933.333-417.868 933.333-933.333S1448.8 0 933.333 0Z"/>
</svg>
